<mxfile host="app.diagrams.net" agent="Mozilla/5.0 (Macintosh; Intel Mac OS X 10_15_7) AppleWebKit/537.36 (KHTML, like Gecko) Chrome/131.0.0.0 Safari/537.36" version="26.0.3">
  <diagram name="第 1 页" id="iRMhF3wf8-rGA4LMWdl7">
    <mxGraphModel dx="2074" dy="1060" grid="1" gridSize="10" guides="1" tooltips="1" connect="1" arrows="1" fold="1" page="1" pageScale="1" pageWidth="827" pageHeight="1169" math="0" shadow="0">
      <root>
        <mxCell id="0" />
        <mxCell id="1" parent="0" />
        <mxCell id="1176zjL0_d39YWw6Qp2d-1" value="" style="endArrow=none;html=1;rounded=0;sketch=1;hachureGap=4;jiggle=2;curveFitting=1;fontFamily=Architects Daughter;fontSource=https%3A%2F%2Ffonts.googleapis.com%2Fcss%3Ffamily%3DArchitects%2BDaughter;" parent="1" edge="1">
          <mxGeometry width="50" height="50" relative="1" as="geometry">
            <mxPoint x="80" y="120" as="sourcePoint" />
            <mxPoint x="760" y="120" as="targetPoint" />
          </mxGeometry>
        </mxCell>
        <mxCell id="1176zjL0_d39YWw6Qp2d-2" value="" style="endArrow=none;html=1;rounded=0;sketch=1;hachureGap=4;jiggle=2;curveFitting=1;fontFamily=Architects Daughter;fontSource=https%3A%2F%2Ffonts.googleapis.com%2Fcss%3Ffamily%3DArchitects%2BDaughter;" parent="1" edge="1">
          <mxGeometry width="50" height="50" relative="1" as="geometry">
            <mxPoint x="80" y="120" as="sourcePoint" />
            <mxPoint x="80" y="1080" as="targetPoint" />
          </mxGeometry>
        </mxCell>
        <mxCell id="1176zjL0_d39YWw6Qp2d-3" value="" style="endArrow=none;html=1;rounded=0;sketch=1;hachureGap=4;jiggle=2;curveFitting=1;fontFamily=Architects Daughter;fontSource=https%3A%2F%2Ffonts.googleapis.com%2Fcss%3Ffamily%3DArchitects%2BDaughter;" parent="1" edge="1">
          <mxGeometry width="50" height="50" relative="1" as="geometry">
            <mxPoint x="760" y="1080" as="sourcePoint" />
            <mxPoint x="80" y="1080" as="targetPoint" />
          </mxGeometry>
        </mxCell>
        <mxCell id="1176zjL0_d39YWw6Qp2d-4" value="" style="endArrow=none;html=1;rounded=0;sketch=1;hachureGap=4;jiggle=2;curveFitting=1;fontFamily=Architects Daughter;fontSource=https%3A%2F%2Ffonts.googleapis.com%2Fcss%3Ffamily%3DArchitects%2BDaughter;" parent="1" edge="1">
          <mxGeometry width="50" height="50" relative="1" as="geometry">
            <mxPoint x="760" y="1080" as="sourcePoint" />
            <mxPoint x="760" y="120" as="targetPoint" />
          </mxGeometry>
        </mxCell>
        <mxCell id="1176zjL0_d39YWw6Qp2d-5" value="搜索引擎的工作原理" style="text;html=1;align=center;verticalAlign=middle;resizable=0;points=[];autosize=1;strokeColor=none;fillColor=none;fontFamily=Architects Daughter;fontSource=https%3A%2F%2Ffonts.googleapis.com%2Fcss%3Ffamily%3DArchitects%2BDaughter;" parent="1" vertex="1">
          <mxGeometry x="349" y="70" width="130" height="30" as="geometry" />
        </mxCell>
        <mxCell id="1176zjL0_d39YWw6Qp2d-6" value="" style="rounded=0;whiteSpace=wrap;html=1;hachureGap=4;fontFamily=Architects Daughter;fontSource=https%3A%2F%2Ffonts.googleapis.com%2Fcss%3Ffamily%3DArchitects%2BDaughter;glass=0;dashed=1;fillColor=#ffe6cc;strokeColor=#d79b00;" parent="1" vertex="1">
          <mxGeometry x="90" y="140" width="660" height="220" as="geometry" />
        </mxCell>
        <mxCell id="1176zjL0_d39YWw6Qp2d-9" value="&lt;font face=&quot;Helvetica&quot; style=&quot;font-size: 16px;&quot;&gt;搜索ElasticSeach&lt;/font&gt;" style="rounded=1;whiteSpace=wrap;html=1;hachureGap=4;fontFamily=Architects Daughter;fontSource=https%3A%2F%2Ffonts.googleapis.com%2Fcss%3Ffamily%3DArchitects%2BDaughter;glass=0;shadow=1;" parent="1" vertex="1">
          <mxGeometry x="90" y="130" width="90" height="40" as="geometry" />
        </mxCell>
        <mxCell id="1176zjL0_d39YWw6Qp2d-10" value="" style="rounded=0;whiteSpace=wrap;html=1;hachureGap=4;fontFamily=Architects Daughter;fontSource=https%3A%2F%2Ffonts.googleapis.com%2Fcss%3Ffamily%3DArchitects%2BDaughter;glass=0;dashed=1;fillColor=#fff2cc;strokeColor=#d6b656;" parent="1" vertex="1">
          <mxGeometry x="90" y="420" width="660" height="650" as="geometry" />
        </mxCell>
        <mxCell id="1176zjL0_d39YWw6Qp2d-11" value="&lt;font face=&quot;Helvetica&quot; style=&quot;font-size: 16px;&quot;&gt;爬虫、索引、排名&lt;/font&gt;" style="rounded=1;whiteSpace=wrap;html=1;hachureGap=4;fontFamily=Architects Daughter;fontSource=https%3A%2F%2Ffonts.googleapis.com%2Fcss%3Ffamily%3DArchitects%2BDaughter;glass=0;shadow=1;" parent="1" vertex="1">
          <mxGeometry x="90" y="410" width="250" height="40" as="geometry" />
        </mxCell>
        <mxCell id="1176zjL0_d39YWw6Qp2d-16" value="" style="sketch=0;outlineConnect=0;fontColor=#232F3E;gradientColor=none;fillColor=#232F3D;strokeColor=none;dashed=0;verticalLabelPosition=bottom;verticalAlign=top;align=center;html=1;fontSize=12;fontStyle=0;aspect=fixed;pointerEvents=1;shape=mxgraph.aws4.client;hachureGap=4;jiggle=2;curveFitting=1;fontFamily=Architects Daughter;fontSource=https%3A%2F%2Ffonts.googleapis.com%2Fcss%3Ffamily%3DArchitects%2BDaughter;" parent="1" vertex="1">
          <mxGeometry x="130" y="222" width="78" height="76" as="geometry" />
        </mxCell>
        <mxCell id="1176zjL0_d39YWw6Qp2d-17" value="客户端" style="text;html=1;align=center;verticalAlign=middle;resizable=0;points=[];autosize=1;strokeColor=none;fillColor=none;fontFamily=Architects Daughter;fontSource=https%3A%2F%2Ffonts.googleapis.com%2Fcss%3Ffamily%3DArchitects%2BDaughter;" parent="1" vertex="1">
          <mxGeometry x="139" y="298" width="60" height="30" as="geometry" />
        </mxCell>
        <mxCell id="1176zjL0_d39YWw6Qp2d-18" value="" style="image;aspect=fixed;html=1;points=[];align=center;fontSize=12;image=img/lib/azure2/other/Windows_Notification_Services.svg;sketch=1;hachureGap=4;jiggle=2;curveFitting=1;fontFamily=Architects Daughter;fontSource=https%3A%2F%2Ffonts.googleapis.com%2Fcss%3Ffamily%3DArchitects%2BDaughter;" parent="1" vertex="1">
          <mxGeometry x="330" y="226" width="68" height="68" as="geometry" />
        </mxCell>
        <mxCell id="1176zjL0_d39YWw6Qp2d-24" value="" style="image;aspect=fixed;html=1;points=[];align=center;fontSize=12;image=img/lib/azure2/general/Search_Grid.svg;sketch=1;hachureGap=4;jiggle=2;curveFitting=1;fontFamily=Architects Daughter;fontSource=https%3A%2F%2Ffonts.googleapis.com%2Fcss%3Ffamily%3DArchitects%2BDaughter;" parent="1" vertex="1">
          <mxGeometry x="540" y="231" width="68" height="67" as="geometry" />
        </mxCell>
        <mxCell id="1176zjL0_d39YWw6Qp2d-25" value="" style="endArrow=classic;html=1;rounded=0;hachureGap=4;fontFamily=Architects Daughter;fontSource=https%3A%2F%2Ffonts.googleapis.com%2Fcss%3Ffamily%3DArchitects%2BDaughter;flowAnimation=1;" parent="1" edge="1">
          <mxGeometry width="50" height="50" relative="1" as="geometry">
            <mxPoint x="210" y="260" as="sourcePoint" />
            <mxPoint x="329" y="260" as="targetPoint" />
          </mxGeometry>
        </mxCell>
        <mxCell id="1176zjL0_d39YWw6Qp2d-26" value="查询" style="endArrow=classic;html=1;rounded=0;hachureGap=4;fontFamily=Architects Daughter;fontSource=https%3A%2F%2Ffonts.googleapis.com%2Fcss%3Ffamily%3DArchitects%2BDaughter;flowAnimation=1;entryX=-0.015;entryY=0.418;entryDx=0;entryDy=0;entryPerimeter=0;" parent="1" target="1176zjL0_d39YWw6Qp2d-24" edge="1">
          <mxGeometry width="50" height="50" relative="1" as="geometry">
            <mxPoint x="400" y="259" as="sourcePoint" />
            <mxPoint x="519" y="259.5" as="targetPoint" />
          </mxGeometry>
        </mxCell>
        <mxCell id="1176zjL0_d39YWw6Qp2d-27" value="用户界面" style="text;html=1;align=center;verticalAlign=middle;resizable=0;points=[];autosize=1;strokeColor=none;fillColor=none;fontFamily=Architects Daughter;fontSource=https%3A%2F%2Ffonts.googleapis.com%2Fcss%3Ffamily%3DArchitects%2BDaughter;" parent="1" vertex="1">
          <mxGeometry x="325" y="294" width="70" height="30" as="geometry" />
        </mxCell>
        <mxCell id="1176zjL0_d39YWw6Qp2d-28" value="查询引擎" style="text;html=1;align=center;verticalAlign=middle;resizable=0;points=[];autosize=1;strokeColor=none;fillColor=none;fontFamily=Architects Daughter;fontSource=https%3A%2F%2Ffonts.googleapis.com%2Fcss%3Ffamily%3DArchitects%2BDaughter;" parent="1" vertex="1">
          <mxGeometry x="540" y="290" width="70" height="30" as="geometry" />
        </mxCell>
        <mxCell id="1176zjL0_d39YWw6Qp2d-29" value="" style="shape=image;html=1;verticalAlign=top;verticalLabelPosition=bottom;labelBackgroundColor=#ffffff;imageAspect=0;aspect=fixed;image=https://cdn0.iconfinder.com/data/icons/communication-technology/500/list-128.png;sketch=1;hachureGap=4;jiggle=2;curveFitting=1;fontFamily=Architects Daughter;fontSource=https%3A%2F%2Ffonts.googleapis.com%2Fcss%3Ffamily%3DArchitects%2BDaughter;" parent="1" vertex="1">
          <mxGeometry x="580" y="430" width="128" height="128" as="geometry" />
        </mxCell>
        <mxCell id="1176zjL0_d39YWw6Qp2d-31" value="排名页面" style="text;html=1;align=center;verticalAlign=middle;resizable=0;points=[];autosize=1;strokeColor=none;fillColor=none;fontFamily=Architects Daughter;fontSource=https%3A%2F%2Ffonts.googleapis.com%2Fcss%3Ffamily%3DArchitects%2BDaughter;" parent="1" vertex="1">
          <mxGeometry x="608" y="528" width="70" height="30" as="geometry" />
        </mxCell>
        <mxCell id="1176zjL0_d39YWw6Qp2d-32" value="" style="shape=image;html=1;verticalAlign=top;verticalLabelPosition=bottom;labelBackgroundColor=#ffffff;imageAspect=0;aspect=fixed;image=https://cdn3.iconfinder.com/data/icons/moonlight/folder3.png;sketch=1;hachureGap=4;jiggle=2;curveFitting=1;fontFamily=Architects Daughter;fontSource=https%3A%2F%2Ffonts.googleapis.com%2Fcss%3Ffamily%3DArchitects%2BDaughter;" parent="1" vertex="1">
          <mxGeometry x="398" y="480" width="50" height="50" as="geometry" />
        </mxCell>
        <mxCell id="1176zjL0_d39YWw6Qp2d-33" value="排名" style="text;html=1;align=center;verticalAlign=middle;resizable=0;points=[];autosize=1;strokeColor=none;fillColor=none;fontFamily=Architects Daughter;fontSource=https%3A%2F%2Ffonts.googleapis.com%2Fcss%3Ffamily%3DArchitects%2BDaughter;" parent="1" vertex="1">
          <mxGeometry x="398" y="528" width="50" height="30" as="geometry" />
        </mxCell>
        <mxCell id="1176zjL0_d39YWw6Qp2d-36" value="" style="sketch=0;aspect=fixed;pointerEvents=1;shadow=0;dashed=0;html=1;strokeColor=none;labelPosition=center;verticalLabelPosition=bottom;verticalAlign=top;align=center;shape=mxgraph.azure.startup_task;fillColor=#0078D7;hachureGap=4;jiggle=2;curveFitting=1;fontFamily=Architects Daughter;fontSource=https%3A%2F%2Ffonts.googleapis.com%2Fcss%3Ffamily%3DArchitects%2BDaughter;" parent="1" vertex="1">
          <mxGeometry x="139" y="558" width="57.6" height="60" as="geometry" />
        </mxCell>
        <mxCell id="1176zjL0_d39YWw6Qp2d-37" value="调度器" style="text;html=1;align=center;verticalAlign=middle;resizable=0;points=[];autosize=1;strokeColor=none;fillColor=none;fontFamily=Architects Daughter;fontSource=https%3A%2F%2Ffonts.googleapis.com%2Fcss%3Ffamily%3DArchitects%2BDaughter;" parent="1" vertex="1">
          <mxGeometry x="137.8" y="618" width="60" height="30" as="geometry" />
        </mxCell>
        <mxCell id="1176zjL0_d39YWw6Qp2d-38" value="" style="shape=image;html=1;verticalAlign=top;verticalLabelPosition=bottom;labelBackgroundColor=#ffffff;imageAspect=0;aspect=fixed;image=https://cdn1.iconfinder.com/data/icons/KDE_Crystal_Diamond_2.5_Classical_Mod/128x128/mimetypes/html.png;sketch=1;hachureGap=4;jiggle=2;curveFitting=1;fontFamily=Architects Daughter;fontSource=https%3A%2F%2Ffonts.googleapis.com%2Fcss%3Ffamily%3DArchitects%2BDaughter;" parent="1" vertex="1">
          <mxGeometry x="139" y="730" width="70" height="70" as="geometry" />
        </mxCell>
        <mxCell id="1176zjL0_d39YWw6Qp2d-39" value="&lt;font style=&quot;&quot; face=&quot;Helvetica&quot;&gt;URLs&lt;/font&gt;" style="text;html=1;align=center;verticalAlign=middle;resizable=0;points=[];autosize=1;strokeColor=none;fillColor=none;fontFamily=Architects Daughter;fontSource=https%3A%2F%2Ffonts.googleapis.com%2Fcss%3Ffamily%3DArchitects%2BDaughter;" parent="1" vertex="1">
          <mxGeometry x="144" y="800" width="50" height="30" as="geometry" />
        </mxCell>
        <mxCell id="1176zjL0_d39YWw6Qp2d-40" value="" style="sketch=0;outlineConnect=0;fontColor=#232F3E;gradientColor=none;fillColor=#8C4FFF;strokeColor=none;dashed=0;verticalLabelPosition=bottom;verticalAlign=top;align=center;html=1;fontSize=12;fontStyle=0;aspect=fixed;pointerEvents=1;shape=mxgraph.aws4.glue_crawlers;hachureGap=4;jiggle=2;curveFitting=1;fontFamily=Architects Daughter;fontSource=https%3A%2F%2Ffonts.googleapis.com%2Fcss%3Ffamily%3DArchitects%2BDaughter;" parent="1" vertex="1">
          <mxGeometry x="271" y="910" width="78" height="78" as="geometry" />
        </mxCell>
        <mxCell id="1176zjL0_d39YWw6Qp2d-41" value="&lt;font face=&quot;Helvetica&quot;&gt;爬虫&lt;/font&gt;" style="text;html=1;align=center;verticalAlign=middle;resizable=0;points=[];autosize=1;strokeColor=none;fillColor=none;fontFamily=Architects Daughter;fontSource=https%3A%2F%2Ffonts.googleapis.com%2Fcss%3Ffamily%3DArchitects%2BDaughter;" parent="1" vertex="1">
          <mxGeometry x="290" y="988" width="50" height="30" as="geometry" />
        </mxCell>
        <mxCell id="1176zjL0_d39YWw6Qp2d-43" value="" style="verticalLabelPosition=bottom;html=1;verticalAlign=top;align=center;strokeColor=none;fillColor=#00BEF2;shape=mxgraph.azure.sql_database_sql_azure;hachureGap=4;fontFamily=Architects Daughter;fontSource=https%3A%2F%2Ffonts.googleapis.com%2Fcss%3Ffamily%3DArchitects%2BDaughter;" parent="1" vertex="1">
          <mxGeometry x="450" y="924" width="47.5" height="50" as="geometry" />
        </mxCell>
        <mxCell id="1176zjL0_d39YWw6Qp2d-45" value="" style="sketch=0;outlineConnect=0;fontColor=#232F3E;gradientColor=none;fillColor=#01A88D;strokeColor=none;dashed=0;verticalLabelPosition=bottom;verticalAlign=top;align=center;html=1;fontSize=12;fontStyle=0;aspect=fixed;shape=mxgraph.aws4.mainframe_modernization_analyzer;hachureGap=4;jiggle=2;curveFitting=1;fontFamily=Architects Daughter;fontSource=https%3A%2F%2Ffonts.googleapis.com%2Fcss%3Ffamily%3DArchitects%2BDaughter;" parent="1" vertex="1">
          <mxGeometry x="610" y="910" width="78" height="78" as="geometry" />
        </mxCell>
        <mxCell id="1176zjL0_d39YWw6Qp2d-46" value="" style="sketch=0;outlineConnect=0;fontColor=#232F3E;gradientColor=none;fillColor=#E7157B;strokeColor=none;dashed=0;verticalLabelPosition=bottom;verticalAlign=top;align=center;html=1;fontSize=12;fontStyle=0;aspect=fixed;pointerEvents=1;shape=mxgraph.aws4.eventbridge_pipes;hachureGap=4;jiggle=2;curveFitting=1;fontFamily=Architects Daughter;fontSource=https%3A%2F%2Ffonts.googleapis.com%2Fcss%3Ffamily%3DArchitects%2BDaughter;" parent="1" vertex="1">
          <mxGeometry x="605" y="730" width="78" height="78" as="geometry" />
        </mxCell>
        <mxCell id="1176zjL0_d39YWw6Qp2d-48" value="&lt;font face=&quot;Helvetica&quot;&gt;页面存储器&lt;/font&gt;" style="text;html=1;align=center;verticalAlign=middle;resizable=0;points=[];autosize=1;strokeColor=none;fillColor=none;fontFamily=Architects Daughter;fontSource=https%3A%2F%2Ffonts.googleapis.com%2Fcss%3Ffamily%3DArchitects%2BDaughter;" parent="1" vertex="1">
          <mxGeometry x="432.5" y="988" width="80" height="30" as="geometry" />
        </mxCell>
        <mxCell id="1176zjL0_d39YWw6Qp2d-49" value="&lt;font face=&quot;Helvetica&quot;&gt;解析器&lt;/font&gt;" style="text;html=1;align=center;verticalAlign=middle;resizable=0;points=[];autosize=1;strokeColor=none;fillColor=none;fontFamily=Architects Daughter;fontSource=https%3A%2F%2Ffonts.googleapis.com%2Fcss%3Ffamily%3DArchitects%2BDaughter;" parent="1" vertex="1">
          <mxGeometry x="620" y="988" width="60" height="30" as="geometry" />
        </mxCell>
        <mxCell id="1176zjL0_d39YWw6Qp2d-50" value="&lt;font face=&quot;Helvetica&quot;&gt;索引&lt;/font&gt;" style="text;html=1;align=center;verticalAlign=middle;resizable=0;points=[];autosize=1;strokeColor=none;fillColor=none;fontFamily=Architects Daughter;fontSource=https%3A%2F%2Ffonts.googleapis.com%2Fcss%3Ffamily%3DArchitects%2BDaughter;" parent="1" vertex="1">
          <mxGeometry x="625" y="808" width="50" height="30" as="geometry" />
        </mxCell>
        <mxCell id="1176zjL0_d39YWw6Qp2d-51" value="" style="sketch=0;outlineConnect=0;fontColor=#232F3E;gradientColor=none;fillColor=#8C4FFF;strokeColor=none;dashed=0;verticalLabelPosition=bottom;verticalAlign=top;align=center;html=1;fontSize=12;fontStyle=0;aspect=fixed;pointerEvents=1;shape=mxgraph.aws4.opensearch_service_index;hachureGap=4;jiggle=2;curveFitting=1;fontFamily=Architects Daughter;fontSource=https%3A%2F%2Ffonts.googleapis.com%2Fcss%3Ffamily%3DArchitects%2BDaughter;" parent="1" vertex="1">
          <mxGeometry x="479" y="610" width="78" height="78" as="geometry" />
        </mxCell>
        <mxCell id="1176zjL0_d39YWw6Qp2d-52" value="&lt;font face=&quot;Helvetica&quot;&gt;索引网页&lt;/font&gt;" style="text;html=1;align=center;verticalAlign=middle;resizable=0;points=[];autosize=1;strokeColor=none;fillColor=none;fontFamily=Architects Daughter;fontSource=https%3A%2F%2Ffonts.googleapis.com%2Fcss%3Ffamily%3DArchitects%2BDaughter;" parent="1" vertex="1">
          <mxGeometry x="483" y="688" width="70" height="30" as="geometry" />
        </mxCell>
        <mxCell id="1176zjL0_d39YWw6Qp2d-53" value="" style="endArrow=classic;html=1;rounded=0;hachureGap=4;fontFamily=Architects Daughter;fontSource=https%3A%2F%2Ffonts.googleapis.com%2Fcss%3Ffamily%3DArchitects%2BDaughter;exitX=1;exitY=0.5;exitDx=0;exitDy=0;exitPerimeter=0;flowAnimation=1;" parent="1" source="1176zjL0_d39YWw6Qp2d-36" target="1176zjL0_d39YWw6Qp2d-40" edge="1">
          <mxGeometry width="50" height="50" relative="1" as="geometry">
            <mxPoint x="-210" y="760" as="sourcePoint" />
            <mxPoint x="-160" y="710" as="targetPoint" />
            <Array as="points">
              <mxPoint x="310" y="590" />
            </Array>
          </mxGeometry>
        </mxCell>
        <mxCell id="1176zjL0_d39YWw6Qp2d-54" style="edgeStyle=orthogonalEdgeStyle;rounded=0;hachureGap=4;orthogonalLoop=1;jettySize=auto;html=1;exitX=0.5;exitY=0;exitDx=0;exitDy=0;entryX=0.603;entryY=0.733;entryDx=0;entryDy=0;entryPerimeter=0;fontFamily=Architects Daughter;fontSource=https%3A%2F%2Ffonts.googleapis.com%2Fcss%3Ffamily%3DArchitects%2BDaughter;flowAnimation=1;" parent="1" source="1176zjL0_d39YWw6Qp2d-38" target="1176zjL0_d39YWw6Qp2d-37" edge="1">
          <mxGeometry relative="1" as="geometry" />
        </mxCell>
        <mxCell id="1176zjL0_d39YWw6Qp2d-55" style="edgeStyle=orthogonalEdgeStyle;rounded=0;hachureGap=4;orthogonalLoop=1;jettySize=auto;html=1;entryX=0.56;entryY=1;entryDx=0;entryDy=0;entryPerimeter=0;fontFamily=Architects Daughter;fontSource=https%3A%2F%2Ffonts.googleapis.com%2Fcss%3Ffamily%3DArchitects%2BDaughter;flowAnimation=1;" parent="1" source="1176zjL0_d39YWw6Qp2d-40" target="1176zjL0_d39YWw6Qp2d-39" edge="1">
          <mxGeometry relative="1" as="geometry">
            <mxPoint x="209" y="940" as="sourcePoint" />
            <mxPoint x="209" y="850" as="targetPoint" />
          </mxGeometry>
        </mxCell>
        <mxCell id="1176zjL0_d39YWw6Qp2d-56" value="" style="image;aspect=fixed;perimeter=ellipsePerimeter;html=1;align=center;shadow=0;dashed=0;spacingTop=3;image=img/lib/active_directory/home_page.svg;sketch=1;hachureGap=4;jiggle=2;curveFitting=1;fontFamily=Architects Daughter;fontSource=https%3A%2F%2Ffonts.googleapis.com%2Fcss%3Ffamily%3DArchitects%2BDaughter;" parent="1" vertex="1">
          <mxGeometry x="363.34" y="750" width="63.33" height="57" as="geometry" />
        </mxCell>
        <mxCell id="1176zjL0_d39YWw6Qp2d-57" value="&lt;font face=&quot;Helvetica&quot;&gt;网页&lt;/font&gt;" style="text;html=1;align=center;verticalAlign=middle;resizable=0;points=[];autosize=1;strokeColor=none;fillColor=none;fontFamily=Architects Daughter;fontSource=https%3A%2F%2Ffonts.googleapis.com%2Fcss%3Ffamily%3DArchitects%2BDaughter;" parent="1" vertex="1">
          <mxGeometry x="370" y="800" width="50" height="30" as="geometry" />
        </mxCell>
        <mxCell id="1176zjL0_d39YWw6Qp2d-58" value="" style="endArrow=classic;html=1;rounded=0;hachureGap=4;fontFamily=Architects Daughter;fontSource=https%3A%2F%2Ffonts.googleapis.com%2Fcss%3Ffamily%3DArchitects%2BDaughter;exitX=0.06;exitY=1.033;exitDx=0;exitDy=0;exitPerimeter=0;flowAnimation=1;" parent="1" source="1176zjL0_d39YWw6Qp2d-57" target="1176zjL0_d39YWw6Qp2d-40" edge="1">
          <mxGeometry width="50" height="50" relative="1" as="geometry">
            <mxPoint x="-150" y="910" as="sourcePoint" />
            <mxPoint x="-100" y="860" as="targetPoint" />
          </mxGeometry>
        </mxCell>
        <mxCell id="1176zjL0_d39YWw6Qp2d-59" value="" style="endArrow=classic;html=1;rounded=0;hachureGap=4;fontFamily=Architects Daughter;fontSource=https%3A%2F%2Ffonts.googleapis.com%2Fcss%3Ffamily%3DArchitects%2BDaughter;flowAnimation=1;entryX=0;entryY=0.5;entryDx=0;entryDy=0;entryPerimeter=0;" parent="1" source="1176zjL0_d39YWw6Qp2d-40" target="1176zjL0_d39YWw6Qp2d-43" edge="1">
          <mxGeometry width="50" height="50" relative="1" as="geometry">
            <mxPoint x="383" y="841" as="sourcePoint" />
            <mxPoint x="341" y="920" as="targetPoint" />
          </mxGeometry>
        </mxCell>
        <mxCell id="1176zjL0_d39YWw6Qp2d-60" value="" style="endArrow=classic;html=1;rounded=0;hachureGap=4;fontFamily=Architects Daughter;fontSource=https%3A%2F%2Ffonts.googleapis.com%2Fcss%3Ffamily%3DArchitects%2BDaughter;flowAnimation=1;entryX=0;entryY=0.5;entryDx=0;entryDy=0;entryPerimeter=0;" parent="1" edge="1">
          <mxGeometry width="50" height="50" relative="1" as="geometry">
            <mxPoint x="504" y="948.5" as="sourcePoint" />
            <mxPoint x="605" y="948.5" as="targetPoint" />
          </mxGeometry>
        </mxCell>
        <mxCell id="1176zjL0_d39YWw6Qp2d-61" value="" style="endArrow=classic;html=1;rounded=0;hachureGap=4;fontFamily=Architects Daughter;fontSource=https%3A%2F%2Ffonts.googleapis.com%2Fcss%3Ffamily%3DArchitects%2BDaughter;flowAnimation=1;" parent="1" source="1176zjL0_d39YWw6Qp2d-45" edge="1">
          <mxGeometry width="50" height="50" relative="1" as="geometry">
            <mxPoint x="553" y="870" as="sourcePoint" />
            <mxPoint x="650" y="838" as="targetPoint" />
          </mxGeometry>
        </mxCell>
        <mxCell id="1176zjL0_d39YWw6Qp2d-62" value="" style="endArrow=classic;html=1;rounded=0;hachureGap=4;fontFamily=Architects Daughter;fontSource=https%3A%2F%2Ffonts.googleapis.com%2Fcss%3Ffamily%3DArchitects%2BDaughter;flowAnimation=1;" parent="1" edge="1">
          <mxGeometry width="50" height="50" relative="1" as="geometry">
            <mxPoint x="610" y="723.45" as="sourcePoint" />
            <mxPoint x="557" y="682.5478260869565" as="targetPoint" />
          </mxGeometry>
        </mxCell>
        <mxCell id="1176zjL0_d39YWw6Qp2d-63" value="" style="endArrow=classic;html=1;rounded=0;hachureGap=4;fontFamily=Architects Daughter;fontSource=https%3A%2F%2Ffonts.googleapis.com%2Fcss%3Ffamily%3DArchitects%2BDaughter;flowAnimation=1;entryX=0;entryY=0.5;entryDx=0;entryDy=0;exitX=1;exitY=0.25;exitDx=0;exitDy=0;" parent="1" edge="1">
          <mxGeometry width="50" height="50" relative="1" as="geometry">
            <mxPoint x="448" y="510" as="sourcePoint" />
            <mxPoint x="580" y="511.5" as="targetPoint" />
          </mxGeometry>
        </mxCell>
        <mxCell id="1176zjL0_d39YWw6Qp2d-64" value="" style="endArrow=classic;html=1;rounded=0;hachureGap=4;fontFamily=Architects Daughter;fontSource=https%3A%2F%2Ffonts.googleapis.com%2Fcss%3Ffamily%3DArchitects%2BDaughter;flowAnimation=1;" parent="1" source="1176zjL0_d39YWw6Qp2d-51" edge="1">
          <mxGeometry width="50" height="50" relative="1" as="geometry">
            <mxPoint x="485.5" y="598.9000000000001" as="sourcePoint" />
            <mxPoint x="432.5" y="557.9978260869566" as="targetPoint" />
          </mxGeometry>
        </mxCell>
        <mxCell id="1176zjL0_d39YWw6Qp2d-65" value="" style="endArrow=classic;html=1;rounded=0;hachureGap=4;fontFamily=Architects Daughter;fontSource=https%3A%2F%2Ffonts.googleapis.com%2Fcss%3Ffamily%3DArchitects%2BDaughter;flowAnimation=1;entryX=0.5;entryY=0;entryDx=0;entryDy=0;exitX=0.157;exitY=0.967;exitDx=0;exitDy=0;exitPerimeter=0;" parent="1" source="1176zjL0_d39YWw6Qp2d-28" target="1176zjL0_d39YWw6Qp2d-32" edge="1">
          <mxGeometry width="50" height="50" relative="1" as="geometry">
            <mxPoint x="398" y="390" as="sourcePoint" />
            <mxPoint x="530" y="391.5" as="targetPoint" />
          </mxGeometry>
        </mxCell>
        <mxCell id="1176zjL0_d39YWw6Qp2d-66" value="调用" style="edgeLabel;html=1;align=center;verticalAlign=middle;resizable=0;points=[];sketch=1;hachureGap=4;jiggle=2;curveFitting=1;fontFamily=Architects Daughter;fontSource=https%3A%2F%2Ffonts.googleapis.com%2Fcss%3Ffamily%3DArchitects%2BDaughter;" parent="1176zjL0_d39YWw6Qp2d-65" vertex="1" connectable="0">
          <mxGeometry x="-0.1255" y="-4" relative="1" as="geometry">
            <mxPoint x="28" y="-37" as="offset" />
          </mxGeometry>
        </mxCell>
        <mxCell id="1176zjL0_d39YWw6Qp2d-67" value="" style="endArrow=classic;html=1;rounded=0;hachureGap=4;fontFamily=Architects Daughter;fontSource=https%3A%2F%2Ffonts.googleapis.com%2Fcss%3Ffamily%3DArchitects%2BDaughter;flowAnimation=1;entryX=0.9;entryY=1;entryDx=0;entryDy=0;exitX=0.453;exitY=0.313;exitDx=0;exitDy=0;exitPerimeter=0;entryPerimeter=0;" parent="1" source="1176zjL0_d39YWw6Qp2d-29" target="1176zjL0_d39YWw6Qp2d-28" edge="1">
          <mxGeometry width="50" height="50" relative="1" as="geometry">
            <mxPoint x="638" y="349.5" as="sourcePoint" />
            <mxPoint x="510" y="510.5" as="targetPoint" />
          </mxGeometry>
        </mxCell>
        <mxCell id="1176zjL0_d39YWw6Qp2d-73" value="&lt;font face=&quot;Helvetica&quot; style=&quot;font-size: 38px;&quot;&gt;1&lt;/font&gt;" style="ellipse;whiteSpace=wrap;html=1;aspect=fixed;hachureGap=4;fontFamily=Architects Daughter;fontSource=https%3A%2F%2Ffonts.googleapis.com%2Fcss%3Ffamily%3DArchitects%2BDaughter;shadow=1;fillColor=#d80073;strokeColor=#A50040;fontColor=#ffffff;" parent="1" vertex="1">
          <mxGeometry x="312" y="651" width="37" height="37" as="geometry" />
        </mxCell>
        <mxCell id="1176zjL0_d39YWw6Qp2d-74" value="&lt;font face=&quot;Helvetica&quot; style=&quot;font-size: 38px;&quot;&gt;2&lt;/font&gt;" style="ellipse;whiteSpace=wrap;html=1;aspect=fixed;hachureGap=4;fontFamily=Architects Daughter;fontSource=https%3A%2F%2Ffonts.googleapis.com%2Fcss%3Ffamily%3DArchitects%2BDaughter;shadow=1;fillColor=#d80073;strokeColor=#A50040;fontColor=#ffffff;" parent="1" vertex="1">
          <mxGeometry x="588" y="680" width="37" height="37" as="geometry" />
        </mxCell>
        <mxCell id="1176zjL0_d39YWw6Qp2d-75" value="&lt;font face=&quot;Helvetica&quot;&gt;&lt;span style=&quot;font-size: 38px;&quot;&gt;3&lt;/span&gt;&lt;/font&gt;" style="ellipse;whiteSpace=wrap;html=1;aspect=fixed;hachureGap=4;fontFamily=Architects Daughter;fontSource=https%3A%2F%2Ffonts.googleapis.com%2Fcss%3Ffamily%3DArchitects%2BDaughter;shadow=1;fillColor=#d80073;strokeColor=#A50040;fontColor=#ffffff;" parent="1" vertex="1">
          <mxGeometry x="460.5" y="558" width="37" height="37" as="geometry" />
        </mxCell>
        <mxCell id="1176zjL0_d39YWw6Qp2d-76" value="&lt;font face=&quot;Helvetica&quot;&gt;&lt;span style=&quot;font-size: 38px;&quot;&gt;4&lt;/span&gt;&lt;/font&gt;" style="ellipse;whiteSpace=wrap;html=1;aspect=fixed;hachureGap=4;fontFamily=Architects Daughter;fontSource=https%3A%2F%2Ffonts.googleapis.com%2Fcss%3Ffamily%3DArchitects%2BDaughter;shadow=1;fillColor=#d80073;strokeColor=#A50040;fontColor=#ffffff;" parent="1" vertex="1">
          <mxGeometry x="250" y="220" width="37" height="37" as="geometry" />
        </mxCell>
        <mxCell id="1176zjL0_d39YWw6Qp2d-77" value="&lt;font style=&quot;&quot; face=&quot;Helvetica&quot;&gt;JavaPub技术团队&lt;/font&gt;" style="text;html=1;align=center;verticalAlign=middle;resizable=0;points=[];autosize=1;strokeColor=none;fillColor=none;fontFamily=Architects Daughter;fontSource=https%3A%2F%2Ffonts.googleapis.com%2Fcss%3Ffamily%3DArchitects%2BDaughter;" parent="1" vertex="1">
          <mxGeometry x="89" y="1030" width="120" height="30" as="geometry" />
        </mxCell>
      </root>
    </mxGraphModel>
  </diagram>
</mxfile>
